# xmcd
#
# Track frame offsets: 
#        150
#        19915
#        43200
#
# Disc length: 667 seconds
#
# Revision: 1
# Processed by: cddbd v1.5.2PL0 Copyright (c) Steve Scherf et al.
# Submitted via: ExactAudioCopy v0.95b4
#
DISCID=21029903
DTITLE=Antony and The Johnsons - Hope There's Someone (EP)
DYEAR=2005
DGENRE=Chamber Pop
TTITLE0=Hope There's Someone
TTITLE1=Frankenstein
TTITLE2=Just One Star
EXTD=
EXTT0=
EXTT1=
EXTT2=
PLAYORDER=
